# xmcd
# Copyright (C) 1995-1998 Ti Kan
#
# Track frame offsets:
#       150
#       12653
#       29676
#       55912
#       72860
#       90694
#       111526
#       139573
#       156462
#       172116
#       192485
#       211416
#       231183
#       252120
#       266834
#       289214
#       309127
#
# Disc length: 4405 seconds
#
# Revision: 3
# Processed by: cddbd v1.5.1PL0 Copyright (c) Steve Scherf et al.
# Submitted via: CD-Transfer v1.0
#
DISCID=06113311
DTITLE=Henri Huber - Won I Lande Weis I Nid
DYEAR=2004
DGENRE=
TTITLE0=Roller Derby Queen
TTITLE1=Whenever
TTITLE2=Schwarzi Fänster
TTITLE3=Nid Immer Eifach
TTITLE4=I Loufe Mit Dir
TTITLE5=Take Me To The City
TTITLE6=Blatt Im Wind
TTITLE7=Lueg Wider Füre
TTITLE8=Schöni Frou
TTITLE9=Usverchouf
TTITLE10=You Got A Friend
TTITLE11=Jolie Marie
TTITLE12=I Ga Mit Em Flugzüg
TTITLE13=J' Ai La La Tête En Gigue
TTITLE14=Maria
TTITLE15=Sometime Other Than Now
TTITLE16=Rumours And Lies
EXTD=
EXTT0=
EXTT1=
EXTT2=
EXTT3=
EXTT4=
EXTT5=
EXTT6=
EXTT7=
EXTT8=
EXTT9=
EXTT10=
EXTT11=
EXTT12=
EXTT13=
EXTT14=
EXTT15=
EXTT16=
PLAYORDER=
